<svg xmlns="http://www.w3.org/2000/svg" viewBox="0 0 4054.71 1101.42"><defs><style>.cls-1,.cls-2{fill-rule:evenodd;}.cls-2{fill:red;}</style></defs><g id="Layer_2" data-name="Layer 2"><g id="Layer_1-2" data-name="Layer 1"><path class="cls-1" d="M235.63,904.44H8.45L213.78.44,1039.06,0,596.87,494.27,655,566.72,919.36,903.44H644.71l-314-404.25C303,634.84,268.11,768.88,235.63,903.46ZM390.46,227.36,330.71,499.19,584.84,231.41Z"/><polygon class="cls-1" points="1545.32 0.44 1773.64 0.44 1662.71 493.22 1700.12 587.39 1780.1 493.22 1891.03 0.44 2116.79 0.44 2007.14 493.22 2044.55 587.39 2116.79 493.22 2227.73 0.44 2456.06 0.44 2330.93 565.46 2022.62 903.44 1911.67 903.44 1839.44 734.45 1685.92 903.44 1574.98 903.44 1420.19 599.21 1545.32 0.44"/><polygon class="cls-1" points="2752.87 0.44 2546.47 903.44 2319.43 903.44 2524.54 0.44 2752.87 0.44"/><polygon class="cls-1" points="3132.29 228.44 3022.59 228.44 2869 903.44 2642.03 903.44 2817.47 110.09 2956.79 0.44 3302.51 0.44 3390.23 110.09 3207.05 903.44 2979.99 903.44 3132.29 228.44"/><path class="cls-1" d="M3760.59,903.44H3305.22l206.4-903H3965.7l89,109.65-154.8,683.7L3760.59,903.44Zm-73.53-676-103.22,449h117.42l103.21-449Z"/><polygon class="cls-2" points="1407.37 0.44 1175.05 0.44 711.03 491.43 1063.77 904.2 1327.47 914.01 1069.83 599.44 1343.04 599.35 1385.83 400.44 1069.93 402.59 1407.37 0.44"/><path d="M163.59,959.7a91.44,91.44,0,0,0-.42,11.36,104.38,104.38,0,0,0,.42,11.73c-18.69-.18-37.37-.18-54-.18,0,44.88.42,106,1.66,116.95-7.89-.37-20.76-.37-29.48-.37s-20.76,0-29.06.37C54,1088.76,54,1027.49,54,982.61c-16.61,0-35.3,0-54,.18a104.38,104.38,0,0,0,.42-11.73A93,93,0,0,0,0,959.7Z"/><path d="M389,959.7c-1.24,18.62-1.24,40.23-1.24,69.84s0,49.72,1.24,69.83H329.25c.83-15.27,1.24-41.15,1.24-57.54-12-.19-25.74-.19-39-.19s-27,0-39,.19c0,16.39.41,42.27,1.24,57.54H194.31c1.24-20.11,1.24-40.22,1.24-69.83s0-51.22-1.24-69.84h59.37c-.83,14.34-1.24,41.53-1.24,58.48,12,.18,25.74.18,39,.18s27,0,39-.18c0-16.95-.41-44.14-1.24-58.48Z"/><path d="M597.46,959.7a85.69,85.69,0,0,0-.41,10.8,114,114,0,0,0,.41,12.29c-37.78-.18-73.9-.37-103.8-.37v35.38c36.12,0,70.59,0,100.89-.55v22c-29.89-.19-65.18-.37-100.89-.37v36.87c29.9,0,67.68,0,103.8-.18a114.07,114.07,0,0,0-.41,12.47,100,100,0,0,0,.41,11.36H436.37c1.24-17.87,1.24-40,1.24-69.83,0-29.61,0-53.45-1.24-69.84Z"/><path d="M773.08,1044.25c28.24,2,38.62,7.26,48.58,25.33,6.23,11.36,12,23.46,16.19,29.79H782.22c-9.55,0-10-1.86-16.19-12.66-11.22-31.1-15.78-35.57-35.3-35.57-12,0-18.26,0-33.63.19.42,19.74,1.25,36.5,2.91,48H640.22c.42-20.29.83-40,.83-69.83,0-29.61-.41-49.73-.83-69.84H739c54,0,85.94,11.73,85.94,42.46,0,25.14-14.53,37.62-51.9,41.34Zm-3.73-37.81c0-21.6-13.29-25.14-40.69-25.14-6.23,0-20.76.19-32.39.38,0,16.76,0,33.33.42,49,7.47,0,21.59.18,37.78.18C757.31,1030.84,769.35,1023,769.35,1006.44Z"/><path d="M1029.26,959.7a83.66,83.66,0,0,0-.42,10.8,111.28,111.28,0,0,0,.42,12.29c-37.78-.18-73.91-.37-103.8-.37v35.38c36.12,0,70.58,0,100.89-.55v22c-29.89-.19-65.18-.37-100.89-.37v36.87c29.89,0,67.68,0,103.8-.18a111.37,111.37,0,0,0-.42,12.47,97.68,97.68,0,0,0,.42,11.36H868.17c1.24-17.87,1.24-40,1.24-69.83,0-29.61,0-53.45-1.24-69.84Z"/><path d="M1287.92,1099.37c-1.25-5.4-5.4-17.87-11.21-33.14h-77.64c-5.82,14.71-10.38,27-12,33.14h-59.38c18.69-34.45,58.13-122.35,66.43-139.67h89.69c9.13,17.51,48.16,104.66,68.5,139.67ZM1236.85,974c-2.49,6.7-6.64,16-11.63,27.38-5.39,13.59-12,29.79-18.27,45.06,11.22.19,22.43.19,30.73.19,8.72,0,19.93,0,31.14-.19-5.81-15.45-12.46-31.84-18.27-45.44-5-10.8-8.72-20.3-11.63-27Z"/><path d="M1572.32,959.7c0,12.85-.83,40-.83,69.65,0,31.1,0,52.15.42,70h-60.62c-10.38-14-38.62-46.93-63.94-74.12a175.06,175.06,0,0,1-22-38.73c2.08,15.83,3.32,29.79,3.74,42.09.42,36.5.42,60.89,1.25,70.76h-51.07c.41-18.25.83-40,.83-69.83,0-29.61,0-52.71-.83-69.84h69.33c7.06,10.43,37.37,43.76,61.45,73.19,7.89,9.68,14.12,21,19.1,32.22h.42c-2.5-13.41-4.57-26.26-4.57-39.3,0-22-1.66-52.52-2.91-66.11Z"/><path d="M1703.52,959.7c75.56,0,110,12.29,110,68.53,0,54.76-31.14,71.14-111.27,71.14h-81.79c1.24-19.18,1.24-40,1.24-69.65s0-53.07-1.24-70Zm53.14,69.09c0-41.16-15.78-46-52.31-46-9.14,0-17.44.19-25.33.37-.83,13.41-.83,31.29-.83,47.12,0,21.23,0,35.39.42,45.63,8.3.37,15.36.37,24.49.37C1741.71,1076.28,1756.66,1070.7,1756.66,1028.79Z"/><path d="M2066.39,1029.54a132.8,132.8,0,0,1,19.93,2c22.42,4.65,31.14,14.15,31.14,30.35,0,26.63-24.91,37.43-81.79,37.43H1928.13c1.66-19.18,1.66-40.22,1.66-69.83s0-51.59-1.66-69.84h105.46c54.8,0,81,9.13,81,37.43,0,15.27-7.06,23.47-24.5,28.5-5.81,1.49-14.11,2.42-23.66,3Zm-43.18-49.35c-11.63,0-23.67.18-37.37.37v38.73c13.29.38,25.74.19,36.54.19,26.16-.19,36.54-6.52,36.54-20.67C2058.92,983.16,2049.37,980.19,2023.21,980.19Zm38.61,77.28c0-14.9-11.21-20.11-38.61-20.11-11.21,0-23.67.19-37.37.19,0,12.85,0,27.74.42,39.66,14.94.38,27,.38,37.78.38C2051.86,1077.59,2061.82,1074.05,2061.82,1057.47Z"/><path d="M2296.82,1099.37c-1.25-5.4-5.4-17.87-11.21-33.14H2208c-5.81,14.71-10.38,27-12,33.14h-59.37c18.69-34.45,58.13-122.35,66.43-139.67h89.68c9.14,17.51,48.17,104.66,68.51,139.67ZM2245.75,974c-2.49,6.7-6.65,16-11.63,27.38-5.4,13.59-12,29.79-18.27,45.06,11.21.19,22.42.19,30.73.19,8.72,0,19.93,0,31.14-.19-5.82-15.45-12.46-31.84-18.27-45.44-5-10.8-8.72-20.3-11.63-27Z"/><path d="M2562.54,1049.84c0,32.59-32.38,51.58-92.59,51.58-64.35,0-101.3-18.43-101.3-72.63,0-50.84,32-71.14,102.13-71.14,66.43,0,90.93,18.44,90.93,46.75,0,3.53-.41,7.63-.83,11.91-9.55-.18-19.1-.18-28.23-.18-9.55,0-17.86,0-27,.18,0-3.72.42-6.7.42-9.31,0-21-13.71-25.7-37.79-25.7-27,0-41.1,6.71-41.1,46.93,0,41.91,14.53,49.36,42.76,49.36,24.92,0,37-8.2,37-27.38,0-2-.42-4.47-.42-7.08,9.55.19,18.27.19,27.82.19,9.13,0,18.68,0,28.23-.19Z"/><path d="M2798.37,959.7c-19.93,16.57-60.62,50.47-83.45,70.77,7.88,5,17.85,11.36,27.81,18.62,31.56,23.84,49.41,43.39,58.13,50.28H2739c-7.89,0-11.63-1.11-15.78-4.28-18.27-17.13-43.6-41-62.28-54.94h-1.66c0,21.42,0,43,1.25,59.22h-59.38c.83-18.8,1.25-40.22,1.25-69.83,0-29.8-.42-51.59-1.25-69.84h59.38c-1.66,16.95-1.25,42.83-1.25,65.74,10-6.52,19.51-13,29.06-20.67,20.35-17.32,33.63-34.08,42.35-45.07Z"/><path d="M3043.74,1099.37c-1.24-5.4-5.4-17.87-11.21-33.14h-77.64c-5.81,14.71-10.38,27-12,33.14h-59.37c18.68-34.45,58.12-122.35,66.43-139.67h89.68c9.13,17.51,48.16,104.66,68.51,139.67ZM2992.67,974c-2.49,6.7-6.64,16-11.62,27.38-5.4,13.59-12,29.79-18.27,45.06,11.21.19,22.42.19,30.72.19,8.72,0,19.93,0,31.14-.19-5.81-15.45-12.45-31.84-18.26-45.44-5-10.8-8.72-20.3-11.63-27Z"/><path d="M3253.42,1009.24a47.07,47.07,0,0,0,.83-6.89c0-16.58-12.87-22.16-35.71-22.16-30.72,0-45.67,8.38-46.09,48,.42,39.67,12.88,51,46.92,51,27.82,0,36.12-8.19,34.88-35.76-14.54.19-31.56.19-44,.38a50.15,50.15,0,0,0,.41-8,88.81,88.81,0,0,0-.41-11.17c15.77.18,31.55.18,43.59.18,14.53,0,34.46.19,54-.18,5.39,51.58-8.72,76.72-91.35,76.72-70.16,0-101.3-24.77-101.3-73.56-.42-48.79,32-70.21,103.38-70.21,67.68,0,91.34,19.37,91.34,42.65a68.08,68.08,0,0,1-.41,8.94c-6.65-.19-17-.37-27-.37C3271.27,1008.87,3260.89,1008.87,3253.42,1009.24Z"/><path d="M3487.17,1099.37c-1.24-5.4-5.4-17.87-11.21-33.14h-77.64c-5.81,14.71-10.38,27-12,33.14h-59.37c18.68-34.45,58.12-122.35,66.43-139.67H3483c9.13,17.51,48.16,104.66,68.51,139.67ZM3436.1,974c-2.49,6.7-6.64,16-11.62,27.38-5.4,13.59-12,29.79-18.27,45.06,11.21.19,22.42.19,30.72.19,8.72,0,19.93,0,31.14-.19-5.81-15.45-12.45-31.84-18.27-45.44-5-10.8-8.72-20.3-11.62-27Z"/><path d="M3575.19,1099.37c1.25-18.43,1.25-40.22,1.25-69.83,0-29.8,0-51.59-1.25-69.84h59c-1.25,18.25-1.25,39.85-1.25,69.65,0,29.61,0,51.4,1.25,70Z"/><path d="M3874.54,959.7c0,12.85-.83,40-.83,69.65,0,31.1,0,52.15.42,70h-60.62c-10.38-14-38.61-46.93-63.94-74.12a174.61,174.61,0,0,1-22-38.73c2.07,15.83,3.32,29.79,3.73,42.09.42,36.5.42,60.89,1.25,70.76h-51.07c.41-18.25.83-40,.83-69.83,0-29.61,0-52.71-.83-69.84h69.34c7.06,10.43,37.36,43.76,61.44,73.19,7.89,9.68,14.12,21,19.1,32.22h.42c-2.49-13.41-4.57-26.26-4.57-39.3,0-22-1.66-52.52-2.9-66.11Z"/></g></g></svg>